<?xml version="1.0" encoding="UTF-8"?>
<!-- Uploaded to: SVG Find, www.svgrepo.com, Generator: SVG Find Mixer Tools -->
<svg fill="#000000" width="800px" height="800px" version="1.1" viewBox="144 144 512 512" xmlns="http://www.w3.org/2000/svg">
 <path d="m298.98 282c1.7773-27.117 8.3125-43.438 17.941-44.762 1.0859-0.14844 2.0625-0.71484 2.7227-1.5898 1.2188-1.5977 30.496-39.219 86.199-39.219 12.211 0 24.891 1.8438 37.816 5.4805-0.97656 0.22656-1.9688 0.43359-2.9609 0.61328-1.9609 0.37109-3.3789 2.0859-3.3711 4.0703 0 1.9922 1.4258 3.6914 3.3867 4.0469 12.297 2.25 33.41 8.4766 37.73 15.617 6.8242 11.266 27.27 59.395 27.27 72.715 0 7.9336-4.4414 17.035-8.3594 25.059-2.7852 5.707-5.1875 10.637-5.9023 14.848-0.1875 1.0859-0.39453 2.2656-0.62109 3.5195-1.5039-13.547-2.5586-30.449-0.92969-43.996 0.1875-1.5977-0.55859-3.1562-1.9219-4.0078-17.82-11.012-41.18-24.781-51.262-27.773-8.1484-2.418-19.98-0.88281-32.332 1.1875-7.7695 1.3086-15.793 2.6445-23.145 2.6445l-1.5977-0.023437c-1.9844-0.054688-4.1016-0.078125-6.3047-0.10156-17.82-0.22656-42.227-0.52734-47.734-17.477-0.61328-1.8594-2.3789-3.0078-4.375-2.8164-1.9453 0.21094-3.4727 1.7461-3.6602 3.6992-1.2109 12.336-5.8398 60.141-7.6836 89.805-5.2305-18.07-11.062-43.809-10.906-61.539zm10.523 101.63c-2.0781-0.96875-4.2891-3.2812-6.6523-7.2578-7.5195-12.684-4.8711-21.191 0.1875-26.75 1.2422 4.0859 2.4492 7.707 3.5273 10.707 0.5625 6.8555 1.4766 14.871 2.9375 23.301zm188.25-33.281c6.5664 7.1719 6.9648 15.887 0.95312 26.023-2.6289 4.418-5.3828 6.6367-7.7305 7.4844 1-4.918 6.5-32.055 6.7773-33.508zm-173.14-83.77c11.816 11.539 33.34 11.809 48.625 11.988 2.1641 0.03125 4.2422 0.054688 6.1797 0.11719l1.8281 0.023438c8.0391 0 16.406-1.4023 24.504-2.7617 11.305-1.9062 22.066-3.3711 28.613-1.4102 6.8555 2.0312 23.945 11.305 47.059 25.512-1.9766 21.309 1.668 52.152 4.2969 64.652-1.707 14.809-6.6836 42.824-20.98 67.016-18.602 31.527-70.879 33-110.7 16.199-26.215-11.059-35.211-53.043-38.273-78.375 1.1602-0.72656 5.2461-65.055 8.8438-102.96zm180.05 232.18c-11.973-12.051-39.461-19.23-50.27-21.633-2.8086-5.6133-5.6133-10.156-7.8398-13.289v-5.3672c10.398-4.9531 19.23-12.305 25.34-22.539 8.4219-14.359 13.707-29.797 17.09-43.422 5.2812-0.078125 11.645-3.2109 16.84-11.973 3.6289-6.1016 5.3594-11.965 5.3594-17.578 0-8.4141-3.9609-16.012-11.723-22.199 0.085937-0.16406 2.8906-8.1797 5.2812-13.121 4.375-8.832 9.25-18.82 9.25-28.645 0-16.184-21.711-65.875-28.48-77.02-4.6211-7.5898-18.074-12.871-28.891-16.012 1.5664-1.1562 1.8984-2.1406 2.1406-2.8008 0.57422-1.6523 0.16406-3.5586-1.0781-4.8711-0.48828-0.49609-1.0703-0.91406-1.7305-1.1562-17.09-5.9453-34.008-8.9102-50.105-8.9102-54.562 0-85.766 33.93-91.797 41.188-13.375 3.0547-21.301 20.555-23.363 52.254-0.16406 17.336 4.707 40.777 9.7461 59.023-6.4375 5.4414-17.336 18.656-4.707 39.863 5.5273 9.25 10.98 11.973 15.516 12.051 5.6133 25.922 16.918 53.332 39.621 62.898 0.25 0.16406 0.58203 0.25 0.91406 0.33203v5.5273c-2.8086 3.8008-6.6836 9.582-10.156 16.848-8.5898 1.6445-25.844 6.0312-40.621 16.594-13.699 9.6602-33.102 78.004-31.867 78.832 11.059 7.0938 22.789 13.375 34.676 18.406 30.203 13.121 62.488 19.734 95.836 19.734 32.777 0 64.473-6.3594 94.355-18.996 12.957-5.5273 25.34-12.129 36.816-19.555 1.3281-0.83203-16.16-62.824-26.152-74.465zm-58.109-9.2422v-9.4844c5.4414 10.809 10.652 26 8.7461 43.172-0.73828-0.25-1.6523-0.49609-2.5586-0.82031-7.7617-2.5664-19.484-6.4375-29.223-8.9961l21.789-20.883c0.75-0.76172 1.2461-1.8242 1.2461-2.9883zm-86.516-30.629c14.777 5.0391 30.699 8.0938 46.059 8.0938 11.312 0 22.293-1.7305 32.195-5.1172v25.914l-41.027 39.289-37.227-42.508zm-8.2578 17.508v9.7383c0 0.99219 0.33203 1.8984 0.98438 2.7227l21.379 24.27c-9.9883 2.4727-22.207 6.5195-30.293 9.25-0.91406 0.33203-1.8203 0.56641-2.6445 0.82031-2.0508-19.48 4.3086-35.906 10.574-46.801zm143.3 106.73c-2.5586-12.137-4.6211-21.215-4.6211-21.215-0.49609-2.2266-2.7227-3.6289-4.9531-3.1328-2.2266 0.49609-3.6289 2.7227-3.1328 4.9531 0.078125 0 2.3047 9.9102 4.9531 22.781-27.82 11.312-57.285 17.012-87.672 17.012-31.285 0-61.574-6.1094-90.055-18.004 1.4023-11.555 2.4727-20.309 2.4727-20.309 0.33203-2.3047-1.3242-4.3672-3.5508-4.6133-2.3047-0.25-4.2891 1.3164-4.6211 3.543 0 0-0.82812 6.9336-2.1406 17.832-8.8398-4.125-17.508-8.668-25.844-13.949 9.5-35.086 20.555-59.852 29.883-66.449 10.816-7.7539 23.363-11.973 31.945-14.027-4.2031 11.73-6.7617 26-3.9609 41.77 0.24219 1.4805 1.3242 2.6445 2.7227 3.1328 0.41016 0.16406 0.73828 0.33203 1.2344 0.33203 1.0703 0 2.8086-0.66016 8.7539-2.5586 8.5-2.8984 23.852-7.9258 33.754-9.9883l13.707 15.594c0.74609 0.82031 1.7383 1.3242 2.8906 1.4023h0.16406c1.0703 0 2.1484-0.41016 2.8906-1.1484l16.516-15.855c9.9883 2.0625 25.262 7.1797 33.676 9.9883 5.9453 1.8984 7.6836 2.5586 8.7539 2.5586 0.49609 0 0.82031-0.16406 1.2344-0.33203 1.4102-0.49609 2.4805-1.6523 2.7227-3.1328 2.8906-16.098 0-30.875-4.3672-42.676 15.266 3.8828 32.77 10.242 40.117 17.742 7.7539 9.0039 18.406 38.871 25.008 63.559-9 5.707-18.578 10.727-28.48 15.191z"/>
</svg>